<svg width="21" height="22" viewBox="0 0 21 22" fill="none" xmlns="http://www.w3.org/2000/svg">
<g clip-path="url(#clip0_16_30275)">
<g clip-path="url(#clip1_16_30275)">
<path d="M10.6231 4.523C12.1061 4.523 13.4351 5.035 14.4831 6.035L17.3761 3.136C15.6271 1.502 13.3461 0.5 10.6231 0.5C6.68013 0.5 3.26613 2.769 1.60513 6.073L4.97213 8.692C5.76813 6.299 7.99613 4.523 10.6231 4.523Z" fill="#EB4335"/>
<path d="M20.3151 10.845C20.3151 10.121 20.2471 9.42799 20.1301 8.76099H10.6231V12.635H16.0631C15.9563 13.2638 15.7219 13.8642 15.3743 14.399C15.0267 14.9339 14.5734 15.3919 14.0421 15.745L17.3121 18.289C19.2181 16.528 20.3151 13.924 20.3151 10.845Z" fill="#4285F4"/>
<path d="M10.6231 20.7301C13.3471 20.7301 15.6411 19.8341 17.3131 18.2891L14.0421 15.7451C13.1401 16.3531 11.9801 16.7071 10.6231 16.7071C7.99613 16.7071 5.76813 14.9321 4.97313 12.5391L1.60513 15.1571C3.26513 18.4621 6.67912 20.7311 10.6231 20.7311" fill="#34A853"/>
<path d="M1.60512 15.157L4.97212 12.539C4.76514 11.9186 4.65945 11.269 4.65912 10.615C4.65912 9.947 4.77012 9.3 4.97212 8.692L1.60512 6.073C0.89665 7.48214 0.528463 9.03778 0.530119 10.615V10.616C0.530119 12.25 0.919119 13.792 1.60512 15.157Z" fill="#FBBC05"/>
</g>
</g>
<defs>
<clipPath id="clip0_16_30275">
<rect width="20" height="21" fill="white" transform="translate(0.500122 0.5)"/>
</clipPath>
<clipPath id="clip1_16_30275">
<rect width="20" height="21" fill="white" transform="translate(0.500122 0.5)"/>
</clipPath>
</defs>
</svg>
